# xmcd CD database file
#
# Track frame offsets:
#	151
#	14076
#	24782
#	40623
#	52382
#	61390
#	84699
#	100313
#	115895
#	129735
#	141880
#
# Disc length: 2014 seconds
#
# Revision: 0
# Processed by: cddbd v1.5.2PL0 Copyright (c) Steve Scherf et al.
# Submitted via: CDex 1.70beta2
#
DISCID=9a07dc0b
DTITLE=Andrew Dean - A Family Christmas
DYEAR=2005
DGENRE=Country
TTITLE0=Christmas Is For Kids (featuring Madalin Dean)
TTITLE1=Away In A Manger
TTITLE2=I'll Be Home For Christmas
TTITLE3=Go Tell It On The Mountain
TTITLE4=Jenny's Gift
TTITLE5=O Holy Night
TTITLE6=What Child Is This
TTITLE7=Silent Night, Stille Nacht (featuring Madalin Dean)
TTITLE8=Silver Bells
TTITLE9=Joy To the World
TTITLE10=My Christmas Wish
EXTD=YEAR: 2005
EXTT0=
EXTT1=
EXTT2=
EXTT3=
EXTT4=
EXTT5=
EXTT6=
EXTT7=
EXTT8=
EXTT9=
EXTT10=
PLAYORDER=
